<svg width="85" height="86" viewBox="0 0 85 86" fill="#fff" xmlns="http://www.w3.org/2000/svg">
<rect x="42.5547" y="1.7032" width="59" height="59" rx="29.5" transform="rotate(45 42.5547 1.7032)" fill="#191D25" stroke="#8049E4"/>
<path d="M44.7108 44.63C44.7108 49.8357 40.4792 54.0569 35.2567 54.0569C34.0171 54.0585 32.7893 53.816 31.6434 53.3432C30.4975 52.8703 29.456 52.1764 28.5783 51.301C27.7006 50.4257 27.0039 49.386 26.528 48.2414C26.0521 47.0968 25.8063 45.8696 25.8047 44.63C25.8047 39.4222 30.0363 35.2031 35.2567 35.2031C36.4965 35.2012 37.7245 35.4435 38.8706 35.9163C40.0167 36.389 41.0585 37.0829 41.9364 37.9583C42.8144 38.8336 43.5112 39.8734 43.9873 41.0182C44.4633 42.1629 44.7092 43.3902 44.7108 44.63V44.63ZM55.0804 44.63C55.0804 49.532 52.9646 53.5038 50.3544 53.5038C47.7442 53.5038 45.6284 49.5299 45.6284 44.63C45.6284 39.728 47.7442 35.7562 50.3544 35.7562C52.9646 35.7562 55.0804 39.7301 55.0804 44.63ZM59.3225 44.63C59.3225 49.0208 58.5788 52.58 57.6591 52.58C56.7416 52.58 55.9979 49.0187 55.9979 44.63C55.9979 40.2392 56.7416 36.68 57.6612 36.68C58.5788 36.68 59.3225 40.2392 59.3225 44.63Z" fill="#fff"/>
</svg>
