<svg width="19" height="19" viewBox="0 0 19 19" fill="none" xmlns="http://www.w3.org/2000/svg">
<path d="M9.50059 1.1875C11.7054 1.1875 13.8198 2.06334 15.3788 3.62235C16.9378 5.18136 17.8137 7.29582 17.8137 9.50059C17.8137 11.7054 16.9378 13.8198 15.3788 15.3788C13.8198 16.9378 11.7054 17.8137 9.50059 17.8137C7.29582 17.8137 5.18136 16.9378 3.62235 15.3788C2.06334 13.8198 1.1875 11.7054 1.1875 9.50059C1.1875 7.29582 2.06334 5.18136 3.62235 3.62235C5.18136 2.06334 7.29582 1.1875 9.50059 1.1875ZM10.7475 6.29137C11.365 6.29137 11.8661 5.86269 11.8661 5.22738C11.8661 4.59206 11.3638 4.16338 10.7475 4.16338C10.13 4.16338 9.63122 4.59206 9.63122 5.22738C9.63122 5.86269 10.13 6.29137 10.7475 6.29137ZM10.9648 12.9734C10.9648 12.8464 11.0087 12.5162 10.9838 12.3286L10.0077 13.452C9.80578 13.6646 9.55284 13.8118 9.43409 13.7726C9.38022 13.7528 9.33519 13.7144 9.30711 13.6643C9.27903 13.6143 9.26974 13.5558 9.28091 13.4995L10.9078 8.36C11.0408 7.70806 10.675 7.11313 9.89959 7.03713C9.08141 7.03713 7.87728 7.86719 7.14459 8.9205C7.14459 9.04638 7.12084 9.35987 7.14578 9.5475L8.12072 8.42294C8.32259 8.21275 8.55772 8.06431 8.67647 8.10469C8.73497 8.12569 8.78292 8.16879 8.81 8.22473C8.83709 8.28068 8.84116 8.34502 8.82134 8.40394L7.20872 13.5185C7.02228 14.117 7.37497 14.7036 8.22997 14.8366C9.48872 14.8366 10.2321 14.0268 10.966 12.9734H10.9648Z" fill="white"/>
</svg>
