<svg width="84" height="84" viewBox="0 0 84 84" fill="none" xmlns="http://www.w3.org/2000/svg">
<path d="M6.62693 21.5774L42 1.1547L77.3731 21.5774V62.4226L42 82.8453L6.62693 62.4226V21.5774Z" fill="black" stroke="url(#paint0_linear_539_3037)" stroke-width="2"/>
<path d="M59.4652 31.4054C58.2127 31.9604 56.8673 32.3354 55.4528 32.5049C56.9123 31.6316 58.0042 30.2571 58.5248 28.6379C57.1535 29.4524 55.6528 30.0257 54.0878 30.3329C53.0353 29.2092 51.6413 28.4644 50.1222 28.2141C48.6031 27.9638 47.0439 28.2221 45.6866 28.9488C44.3293 29.6754 43.2499 30.8299 42.616 32.2329C41.982 33.6359 41.8291 35.209 42.1807 36.7079C39.4023 36.5684 36.6842 35.8462 34.2029 34.5882C31.7216 33.3303 29.5325 31.5646 27.7777 29.4059C27.1777 30.4409 26.8328 31.6409 26.8328 32.9189C26.8321 34.0694 27.1154 35.2022 27.6576 36.217C28.1997 37.2317 28.984 38.0969 29.9408 38.7359C28.8312 38.7006 27.7461 38.4007 26.7758 37.8614V37.9514C26.7756 39.565 27.3338 41.1289 28.3555 42.3779C29.3772 43.6268 30.7996 44.4838 32.3813 44.8034C31.3519 45.0819 30.2728 45.123 29.2253 44.9234C29.6715 46.3118 30.5407 47.5259 31.7113 48.3958C32.8819 49.2656 34.2951 49.7476 35.7533 49.7744C33.278 51.7175 30.2211 52.7715 27.0742 52.7669C26.5168 52.767 25.9599 52.7345 25.4062 52.6694C28.6005 54.7231 32.3188 55.8131 36.1162 55.8089C48.9712 55.8089 55.9988 45.1619 55.9988 35.9279C55.9988 35.6279 55.9913 35.3249 55.9778 35.0249C57.3447 34.0363 58.5246 32.8122 59.4623 31.4099L59.4652 31.4054V31.4054Z" fill="white"/>
<defs>
<linearGradient id="paint0_linear_539_3037" x1="42" y1="0" x2="42" y2="84" gradientUnits="userSpaceOnUse">
<stop stop-color="#47258E"/>
<stop offset="1" stop-color="#8247E5"/>
</linearGradient>
</defs>
</svg>
