<svg width="84" height="84" viewBox="0 0 84 84" fill="none" xmlns="http://www.w3.org/2000/svg">
<path d="M6.62693 21.5774L42 1.1547L77.3731 21.5774V62.4226L42 82.8453L6.62693 62.4226V21.5774Z" fill="black" stroke="url(#paint0_linear_539_3038)" stroke-width="2"/>
<path d="M54.9969 29.5757L28.4019 39.8312C26.5869 40.5602 26.5974 41.5727 28.0689 42.0242L34.8969 44.1542L50.6949 34.1867C51.4419 33.7322 52.1244 33.9767 51.5634 34.4747L38.7639 46.0262H38.7609L38.7639 46.0277L38.2929 53.0657C38.9829 53.0657 39.2874 52.7492 39.6744 52.3757L42.9909 49.1507L49.8894 54.2462C51.1614 54.9467 52.0749 54.5867 52.3914 53.0687L56.9199 31.7267C57.3834 29.8682 56.2104 29.0267 54.9969 29.5757V29.5757Z" fill="white"/>
<defs>
<linearGradient id="paint0_linear_539_3038" x1="42" y1="0" x2="42" y2="84" gradientUnits="userSpaceOnUse">
<stop stop-color="#47258E"/>
<stop offset="1" stop-color="#8247E5"/>
</linearGradient>
</defs>
</svg>
