<svg width="84" height="84" viewBox="0 0 84 84" fill="none" xmlns="http://www.w3.org/2000/svg">
<path d="M6.62693 21.5774L42 1.1547L77.3731 21.5774V62.4226L42 82.8453L6.62693 62.4226V21.5774Z" fill="black" stroke="url(#paint0_linear_539_3040)" stroke-width="2"/>
<g clip-path="url(#clip0_539_3040)">
<path d="M44.3062 42C44.3062 47.5913 39.7613 52.125 34.152 52.125C32.8206 52.1268 31.5019 51.8663 30.2711 51.3584C29.0404 50.8506 27.9217 50.1053 26.979 49.1651C26.0363 48.2249 25.2881 47.1082 24.7769 45.8788C24.2658 44.6494 24.0018 43.3314 24 42C24 36.4065 28.545 31.875 34.152 31.875C35.4836 31.8729 36.8026 32.1332 38.0336 32.6409C39.2646 33.1487 40.3835 33.8939 41.3264 34.8342C42.2694 35.7744 43.0178 36.8912 43.5291 38.1207C44.0404 39.3502 44.3045 40.6684 44.3062 42V42ZM55.4438 42C55.4438 47.265 53.1712 51.531 50.3677 51.531C47.5642 51.531 45.2918 47.2628 45.2918 42C45.2918 36.735 47.5642 32.469 50.3677 32.469C53.1712 32.469 55.4438 36.7373 55.4438 42ZM60 42C60 46.716 59.2013 50.5388 58.2135 50.5388C57.228 50.5388 56.4293 46.7138 56.4293 42C56.4293 37.284 57.228 33.4613 58.2157 33.4613C59.2012 33.4613 60 37.284 60 42Z" fill="white"/>
</g>
<defs>
<linearGradient id="paint0_linear_539_3040" x1="42" y1="0" x2="42" y2="84" gradientUnits="userSpaceOnUse">
<stop stop-color="#47258E"/>
<stop offset="1" stop-color="#8247E5"/>
</linearGradient>
<clipPath id="clip0_539_3040">
<rect width="36" height="36" fill="white" transform="translate(24 24)"/>
</clipPath>
</defs>
</svg>
