<svg width="84" height="84" viewBox="0 0 84 84" fill="none" xmlns="http://www.w3.org/2000/svg">
<path d="M6.62693 21.5774L42 1.1547L77.3731 21.5774V62.4226L42 82.8453L6.62693 62.4226V21.5774Z" fill="black" stroke="url(#paint0_linear_539_3039)" stroke-width="2"/>
<g clip-path="url(#clip0_539_3039)">
<path d="M54.4762 30.7384C52.1812 29.7034 49.7212 28.9384 47.1487 28.5034C47.1258 28.4991 47.1021 28.5019 47.0809 28.5116C47.0596 28.5212 47.0419 28.5373 47.0302 28.5574C46.7152 29.1109 46.3642 29.8324 46.1182 30.4024C43.3899 29.9948 40.6161 29.9948 37.8877 30.4024C37.6137 29.7707 37.3047 29.1548 36.9622 28.5574C36.9506 28.537 36.933 28.5206 36.9119 28.5104C36.8907 28.5003 36.8669 28.4968 36.8437 28.5004C34.2727 28.9354 31.8127 29.7004 29.5162 30.7369C29.4965 30.7452 29.4797 30.7594 29.4682 30.7774C24.8002 37.6399 23.5207 44.3329 24.1492 50.9419C24.151 50.9581 24.156 50.9738 24.164 50.988C24.172 51.0022 24.1828 51.0146 24.1957 51.0244C26.9203 53.0081 29.9592 54.5192 33.1852 55.4944C33.2077 55.5014 33.2318 55.5013 33.2542 55.4944C33.2767 55.4874 33.2966 55.4739 33.3112 55.4554C34.0042 54.5254 34.6222 53.5429 35.1502 52.5109C35.1817 52.4509 35.1517 52.3789 35.0887 52.3549C34.1197 51.99 33.1808 51.5497 32.2807 51.0379C32.2645 51.0287 32.2509 51.0156 32.2411 50.9998C32.2312 50.984 32.2254 50.966 32.2242 50.9474C32.223 50.9288 32.2265 50.9103 32.2342 50.8933C32.242 50.8764 32.2539 50.8617 32.2687 50.8504C32.4577 50.7109 32.6467 50.5654 32.8267 50.4199C32.8429 50.4069 32.8624 50.3985 32.8831 50.3959C32.9038 50.3932 32.9247 50.3964 32.9437 50.4049C38.8342 53.0509 45.2137 53.0509 51.0352 50.4049C51.0543 50.3959 51.0755 50.3923 51.0964 50.3947C51.1174 50.3971 51.1372 50.4053 51.1537 50.4184C51.3337 50.5654 51.5212 50.7109 51.7117 50.8504C51.7267 50.8614 51.7388 50.876 51.7468 50.8927C51.7548 50.9095 51.7585 50.928 51.7576 50.9466C51.7567 50.9652 51.7513 50.9833 51.7417 50.9992C51.7321 51.0151 51.7187 51.0284 51.7027 51.0379C50.8057 51.5539 49.8727 51.9904 48.8932 52.3534C48.8782 52.3589 48.8645 52.3675 48.853 52.3787C48.8416 52.3899 48.8326 52.4034 48.8268 52.4183C48.821 52.4332 48.8184 52.4492 48.8193 52.4651C48.8201 52.4811 48.8244 52.4967 48.8317 52.5109C49.3717 53.5414 49.9897 54.5224 50.6692 55.4539C50.6833 55.4731 50.703 55.4874 50.7256 55.4949C50.7481 55.5024 50.7725 55.5028 50.7952 55.4959C54.0267 54.5234 57.0706 53.0116 59.7982 51.0244C59.8115 51.0151 59.8227 51.0031 59.831 50.9891C59.8393 50.9752 59.8444 50.9596 59.8462 50.9434C60.5962 43.3024 58.5892 36.6634 54.5227 30.7804C54.5128 30.7613 54.4963 30.7464 54.4762 30.7384ZM36.0307 46.9174C34.2577 46.9174 32.7952 45.3139 32.7952 43.3474C32.7952 41.3794 34.2292 39.7774 36.0307 39.7774C37.8457 39.7774 39.2947 41.3929 39.2662 43.3474C39.2662 45.3154 37.8322 46.9174 36.0307 46.9174V46.9174ZM47.9932 46.9174C46.2187 46.9174 44.7577 45.3139 44.7577 43.3474C44.7577 41.3794 46.1902 39.7774 47.9932 39.7774C49.8082 39.7774 51.2572 41.3929 51.2287 43.3474C51.2287 45.3154 49.8097 46.9174 47.9932 46.9174V46.9174Z" fill="white"/>
</g>
<defs>
<linearGradient id="paint0_linear_539_3039" x1="42" y1="0" x2="42" y2="84" gradientUnits="userSpaceOnUse">
<stop stop-color="#47258E"/>
<stop offset="1" stop-color="#8247E5"/>
</linearGradient>
<clipPath id="clip0_539_3039">
<rect width="36" height="36" fill="white" transform="translate(24 24)"/>
</clipPath>
</defs>
</svg>
